<?xml version="1.0" encoding="UTF-8" standalone="no"?>
<!DOCTYPE svg PUBLIC "-//W3C//DTD SVG 1.1//EN" "http://www.w3.org/Graphics/SVG/1.1/DTD/svg11.dtd">
<svg viewBox="0 0 304 270" version="1.1" xmlns="http://www.w3.org/2000/svg" xmlns:xlink="http://www.w3.org/1999/xlink" xml:space="preserve" xmlns:serif="http://www.serif.com/" style="fill-rule:evenodd;clip-rule:evenodd;stroke-linejoin:round;stroke-miterlimit:2;">
    <g>
        <ellipse cx="53.189" cy="54.815" rx="53.189" ry="54.815" style="fill:rgb(177,180,197);"/>
        <ellipse cx="53.189" cy="52.385" rx="53.189" ry="52.385" style="fill:url(#_Linear1);"/>
        <g transform="matrix(1,0,0,1,12.357,12.421)">
            <ellipse cx="40.832" cy="41.044" rx="40.832" ry="41.044" style="fill:rgb(225,228,237);"/>
            <path d="M56.697,30.417C56.41,30.303 56.101,30.253 55.793,30.271C55.376,30.301 55.038,30.472 54.838,30.752C53.661,32.418 52.697,35.562 51.919,38.089C51.562,39.258 51.083,40.822 50.736,41.564C50.374,39.484 50.783,31.867 50.942,28.934L50.944,28.887C51.054,26.849 51.069,26.491 51.044,26.334C50.87,25.216 50.426,24.482 49.725,24.154C49.017,23.821 48.096,23.968 47.105,24.571C46.608,24.874 46.47,25.916 46.044,30.638L46.042,30.658C45.807,33.253 45.266,39.226 44.601,40.221C43.851,38.829 42.817,30.921 42.371,27.499C42.059,25.102 41.877,23.725 41.755,23.309C41.498,22.439 40.412,21.698 39.337,21.656C38.442,21.612 37.708,22.071 37.357,22.87C36.702,23.606 36.934,26.049 37.659,31.834C38.003,34.588 38.715,40.275 38.267,40.914C37.374,40.815 35.84,37.253 33.708,30.322C33.11,28.38 32.925,27.797 32.741,27.542C32.379,26.651 31.148,25.964 30.045,26.042C29.952,26.048 29.86,26.06 29.768,26.078C29.19,26.194 27.872,26.731 28.153,29.208C28.932,32.643 29.777,35.165 30.598,37.613L30.614,37.663C31.105,39.128 31.569,40.513 32.001,42.051C33.017,45.681 32.622,47.933 32.617,47.958C32.583,48.19 32.512,48.332 32.406,48.381C32.361,48.401 32.312,48.412 32.263,48.414C31.941,48.437 31.458,48.221 31.208,48.081C30.64,46.983 27.808,41.751 25.241,41.026L25.15,41L25.057,41.008C24.115,41.098 23.423,41.458 23,42.076C22.33,43.054 22.607,44.3 22.675,44.55L22.713,44.64C22.733,44.677 24.792,48.465 25.11,50.227C25.385,51.738 26.806,53.375 27.948,54.691L27.995,54.745C28.368,55.175 28.69,55.547 28.943,55.891C32.259,59.383 37.501,62.319 37.544,62.343C38.198,62.83 38.562,63.301 38.6,63.706C38.618,63.859 38.576,64.013 38.483,64.136L38.369,64.256L39.094,64.967L52.926,63.987L53.516,61.257C55.339,53.552 54.958,46.982 54.952,46.938C54.959,46.696 55.47,44.358 55.882,42.47L55.893,42.422C56.713,38.659 57.731,33.978 57.927,32.197C58.012,31.436 57.529,30.737 56.697,30.418L56.697,30.417Z" style="fill:rgb(138,144,172);fill-rule:nonzero;"/>
        </g>
        <g transform="matrix(1,0,0,1,196,0)">
            <ellipse cx="53.686" cy="54.815" rx="53.686" ry="54.815" style="fill:rgb(177,180,197);"/>
            <ellipse cx="53.686" cy="52.385" rx="53.686" ry="52.385" style="fill:url(#_Linear2);"/>
            <g transform="matrix(1,0,0,1,12.473,12.421)">
                <ellipse cx="41.214" cy="41.044" rx="41.214" ry="41.044" style="fill:rgb(225,228,237);"/>
                <path d="M30.455,40.692L34.906,34.458C33.056,34.151 29.658,34.083 26.875,36.855C22.487,41.225 20.71,50.664 20.34,52.948L31.49,64.053C33.498,63.883 42.386,62.7 50.95,54.172C51.04,53.988 53.127,52.452 51.421,50.754C50.607,49.944 49.259,49.958 48.428,50.787C48.23,50.992 47.957,51.108 47.672,51.108C47.394,51.108 47.128,50.998 46.931,50.802C46.735,50.607 46.624,50.341 46.624,50.064C46.624,49.78 46.74,49.508 46.946,49.312L49.972,46.298C51.51,44.766 50.061,42.182 47.914,42.803L45.437,44.915C44.997,45.295 44.323,45.249 43.94,44.812C43.556,44.369 43.638,43.698 44.075,43.32C52.729,35.758 51.465,36.67 57.033,31.472C59.113,29.747 56.497,26.696 54.447,28.442L40.978,40.506C40.581,40.843 39.99,40.837 39.6,40.491C39.155,40.108 39.145,39.557 39.436,39.121L48.831,24.576C50.204,22.724 47.501,20.666 46.055,22.534L32.164,41.881C31.968,42.162 31.646,42.33 31.303,42.33C31.085,42.33 30.872,42.262 30.694,42.136C30.419,41.946 30.255,41.632 30.255,41.298C30.255,41.08 30.325,40.867 30.454,40.692L30.455,40.692Z" style="fill:rgb(138,144,172);fill-rule:nonzero;"/>
            </g>
        </g>
        <g transform="matrix(1,0,0,1,98,160)">
            <ellipse cx="53.686" cy="54.815" rx="53.686" ry="54.815" style="fill:rgb(177,180,197);"/>
            <ellipse cx="53.686" cy="52.385" rx="53.686" ry="52.385" style="fill:url(#_Linear3);"/>
            <g transform="matrix(1,0,0,1,12.473,12.421)">
                <ellipse cx="41.214" cy="41.044" rx="41.214" ry="41.044" style="fill:rgb(225,228,237);"/>
                <path d="M57.179,35.15C56.704,29.153 49.971,29.765 49.971,29.765C47.129,24.755 42.69,28.384 42.69,28.384C39.28,23.473 35.003,28.024 35.003,28.024C27.63,27.228 27.916,33.258 27.916,33.258C27.743,35.175 28.956,41.105 28.956,41.105C27.862,37.687 25.489,40.524 25.489,40.524C22.572,45.026 24.768,47.491 24.768,47.491C28.715,52.117 37.125,57.671 37.125,57.671C40.171,59.416 38.882,60.971 38.882,60.971L57.302,57.927L57.726,54.433C60.526,45.961 57.179,35.149 57.179,35.149L57.179,35.15Z" style="fill:rgb(138,144,172);fill-rule:nonzero;"/>
            </g>
        </g>
        <g transform="matrix(1,0,0,1,134,31)">
            <g transform="matrix(13,0,0,13,0,0)">
                <path d="M0.073,-0.716L0.359,-0.716C0.416,-0.716 0.458,-0.713 0.486,-0.709C0.514,-0.704 0.539,-0.694 0.561,-0.679C0.583,-0.664 0.601,-0.644 0.616,-0.619C0.63,-0.594 0.638,-0.567 0.638,-0.536C0.638,-0.502 0.629,-0.471 0.611,-0.443C0.593,-0.415 0.568,-0.394 0.537,-0.38C0.581,-0.368 0.614,-0.346 0.638,-0.315C0.661,-0.285 0.673,-0.249 0.673,-0.208C0.673,-0.175 0.665,-0.143 0.65,-0.113C0.635,-0.082 0.614,-0.057 0.588,-0.039C0.562,-0.02 0.53,-0.009 0.491,-0.005C0.467,-0.002 0.409,-0.001 0.317,-0L0.073,-0L0.073,-0.716ZM0.218,-0.597L0.218,-0.431L0.313,-0.431C0.369,-0.431 0.404,-0.432 0.417,-0.434C0.442,-0.437 0.462,-0.445 0.476,-0.459C0.49,-0.473 0.497,-0.492 0.497,-0.515C0.497,-0.537 0.491,-0.555 0.479,-0.569C0.467,-0.583 0.448,-0.591 0.424,-0.594C0.41,-0.596 0.369,-0.597 0.301,-0.597L0.218,-0.597ZM0.218,-0.312L0.218,-0.121L0.352,-0.121C0.404,-0.121 0.437,-0.122 0.451,-0.125C0.472,-0.129 0.49,-0.138 0.503,-0.154C0.517,-0.169 0.523,-0.189 0.523,-0.214C0.523,-0.236 0.518,-0.254 0.508,-0.269C0.497,-0.284 0.482,-0.295 0.463,-0.302C0.443,-0.309 0.4,-0.312 0.334,-0.312L0.218,-0.312Z" style="fill:rgb(177,180,197);fill-rule:nonzero;"/>
            </g>
            <g transform="matrix(13,0,0,13,9.38818,0)">
                <path d="M0.073,-0L0.073,-0.716L0.604,-0.716L0.604,-0.595L0.217,-0.595L0.217,-0.436L0.577,-0.436L0.577,-0.315L0.217,-0.315L0.217,-0.121L0.617,-0.121L0.617,-0L0.073,-0Z" style="fill:rgb(177,180,197);fill-rule:nonzero;"/>
            </g>
            <g transform="matrix(13,0,0,13,18.0591,0)">
                <path d="M0.718,-0L0.561,-0L0.499,-0.163L0.212,-0.163L0.153,-0L0,-0L0.279,-0.716L0.432,-0.716L0.718,-0ZM0.452,-0.283L0.354,-0.549L0.257,-0.283L0.452,-0.283Z" style="fill:rgb(177,180,197);fill-rule:nonzero;"/>
            </g>
            <g transform="matrix(13,0,0,13,26.4824,0)">
                <path d="M0.234,-0L0.234,-0.595L0.021,-0.595L0.021,-0.716L0.59,-0.716L0.59,-0.595L0.378,-0.595L0.378,-0L0.234,-0Z" style="fill:rgb(177,180,197);fill-rule:nonzero;"/>
            </g>
            <g transform="matrix(13,0,0,13,34.4233,0)">
                <path d="M0.036,-0.233L0.177,-0.247C0.185,-0.199 0.202,-0.165 0.228,-0.143C0.254,-0.12 0.289,-0.109 0.333,-0.109C0.38,-0.109 0.415,-0.119 0.438,-0.139C0.462,-0.159 0.474,-0.182 0.474,-0.208C0.474,-0.225 0.469,-0.239 0.459,-0.251C0.449,-0.263 0.431,-0.273 0.407,-0.282C0.39,-0.288 0.351,-0.299 0.291,-0.313C0.214,-0.333 0.159,-0.356 0.128,-0.384C0.084,-0.424 0.062,-0.472 0.062,-0.528C0.062,-0.565 0.072,-0.599 0.093,-0.631C0.114,-0.662 0.143,-0.687 0.182,-0.703C0.221,-0.72 0.268,-0.728 0.323,-0.728C0.413,-0.728 0.481,-0.708 0.526,-0.669C0.572,-0.63 0.595,-0.577 0.598,-0.511L0.453,-0.505C0.447,-0.542 0.434,-0.568 0.413,-0.584C0.393,-0.6 0.362,-0.608 0.322,-0.608C0.28,-0.608 0.247,-0.6 0.223,-0.583C0.208,-0.571 0.2,-0.557 0.2,-0.538C0.2,-0.521 0.207,-0.507 0.222,-0.495C0.24,-0.479 0.284,-0.463 0.354,-0.447C0.425,-0.43 0.477,-0.413 0.51,-0.395C0.544,-0.378 0.571,-0.353 0.59,-0.323C0.609,-0.292 0.618,-0.254 0.618,-0.208C0.618,-0.167 0.607,-0.129 0.584,-0.093C0.561,-0.057 0.529,-0.031 0.487,-0.013C0.446,0.004 0.394,0.013 0.332,0.013C0.241,0.013 0.172,-0.008 0.123,-0.05C0.075,-0.092 0.046,-0.153 0.036,-0.233Z" style="fill:rgb(177,180,197);fill-rule:nonzero;"/>
            </g>
        </g>
        <g transform="matrix(1,0,0,1,40,147)">
            <g transform="matrix(13,0,0,13,0,0)">
                <path d="M0.073,-0.716L0.359,-0.716C0.416,-0.716 0.458,-0.713 0.486,-0.709C0.514,-0.704 0.539,-0.694 0.561,-0.679C0.583,-0.664 0.601,-0.644 0.616,-0.619C0.63,-0.594 0.638,-0.567 0.638,-0.536C0.638,-0.502 0.629,-0.471 0.611,-0.443C0.593,-0.415 0.568,-0.394 0.537,-0.38C0.581,-0.368 0.614,-0.346 0.638,-0.315C0.661,-0.285 0.673,-0.249 0.673,-0.208C0.673,-0.175 0.665,-0.143 0.65,-0.113C0.635,-0.082 0.614,-0.057 0.588,-0.039C0.562,-0.02 0.53,-0.009 0.491,-0.005C0.467,-0.002 0.409,-0.001 0.317,-0L0.073,-0L0.073,-0.716ZM0.218,-0.597L0.218,-0.431L0.313,-0.431C0.369,-0.431 0.404,-0.432 0.417,-0.434C0.442,-0.437 0.462,-0.445 0.476,-0.459C0.49,-0.473 0.497,-0.492 0.497,-0.515C0.497,-0.537 0.491,-0.555 0.479,-0.569C0.467,-0.583 0.448,-0.591 0.424,-0.594C0.41,-0.596 0.369,-0.597 0.301,-0.597L0.218,-0.597ZM0.218,-0.312L0.218,-0.121L0.352,-0.121C0.404,-0.121 0.437,-0.122 0.451,-0.125C0.472,-0.129 0.49,-0.138 0.503,-0.154C0.517,-0.169 0.523,-0.189 0.523,-0.214C0.523,-0.236 0.518,-0.254 0.508,-0.269C0.497,-0.284 0.482,-0.295 0.463,-0.302C0.443,-0.309 0.4,-0.312 0.334,-0.312L0.218,-0.312Z" style="fill:rgb(177,180,197);fill-rule:nonzero;"/>
            </g>
            <g transform="matrix(13,0,0,13,9.38818,0)">
                <path d="M0.073,-0L0.073,-0.716L0.604,-0.716L0.604,-0.595L0.217,-0.595L0.217,-0.436L0.577,-0.436L0.577,-0.315L0.217,-0.315L0.217,-0.121L0.617,-0.121L0.617,-0L0.073,-0Z" style="fill:rgb(177,180,197);fill-rule:nonzero;"/>
            </g>
            <g transform="matrix(13,0,0,13,18.0591,0)">
                <path d="M0.718,-0L0.561,-0L0.499,-0.163L0.212,-0.163L0.153,-0L0,-0L0.279,-0.716L0.432,-0.716L0.718,-0ZM0.452,-0.283L0.354,-0.549L0.257,-0.283L0.452,-0.283Z" style="fill:rgb(177,180,197);fill-rule:nonzero;"/>
            </g>
            <g transform="matrix(13,0,0,13,26.4824,0)">
                <path d="M0.234,-0L0.234,-0.595L0.021,-0.595L0.021,-0.716L0.59,-0.716L0.59,-0.595L0.378,-0.595L0.378,-0L0.234,-0Z" style="fill:rgb(177,180,197);fill-rule:nonzero;"/>
            </g>
            <g transform="matrix(13,0,0,13,34.4233,0)">
                <path d="M0.036,-0.233L0.177,-0.247C0.185,-0.199 0.202,-0.165 0.228,-0.143C0.254,-0.12 0.289,-0.109 0.333,-0.109C0.38,-0.109 0.415,-0.119 0.438,-0.139C0.462,-0.159 0.474,-0.182 0.474,-0.208C0.474,-0.225 0.469,-0.239 0.459,-0.251C0.449,-0.263 0.431,-0.273 0.407,-0.282C0.39,-0.288 0.351,-0.299 0.291,-0.313C0.214,-0.333 0.159,-0.356 0.128,-0.384C0.084,-0.424 0.062,-0.472 0.062,-0.528C0.062,-0.565 0.072,-0.599 0.093,-0.631C0.114,-0.662 0.143,-0.687 0.182,-0.703C0.221,-0.72 0.268,-0.728 0.323,-0.728C0.413,-0.728 0.481,-0.708 0.526,-0.669C0.572,-0.63 0.595,-0.577 0.598,-0.511L0.453,-0.505C0.447,-0.542 0.434,-0.568 0.413,-0.584C0.393,-0.6 0.362,-0.608 0.322,-0.608C0.28,-0.608 0.247,-0.6 0.223,-0.583C0.208,-0.571 0.2,-0.557 0.2,-0.538C0.2,-0.521 0.207,-0.507 0.222,-0.495C0.24,-0.479 0.284,-0.463 0.354,-0.447C0.425,-0.43 0.477,-0.413 0.51,-0.395C0.544,-0.378 0.571,-0.353 0.59,-0.323C0.609,-0.292 0.618,-0.254 0.618,-0.208C0.618,-0.167 0.607,-0.129 0.584,-0.093C0.561,-0.057 0.529,-0.031 0.487,-0.013C0.446,0.004 0.394,0.013 0.332,0.013C0.241,0.013 0.172,-0.008 0.123,-0.05C0.075,-0.092 0.046,-0.153 0.036,-0.233Z" style="fill:rgb(177,180,197);fill-rule:nonzero;"/>
            </g>
        </g>
        <g transform="matrix(1,0,0,1,235,147)">
            <g transform="matrix(13,0,0,13,0,0)">
                <path d="M0.073,-0.716L0.359,-0.716C0.416,-0.716 0.458,-0.713 0.486,-0.709C0.514,-0.704 0.539,-0.694 0.561,-0.679C0.583,-0.664 0.601,-0.644 0.616,-0.619C0.63,-0.594 0.638,-0.567 0.638,-0.536C0.638,-0.502 0.629,-0.471 0.611,-0.443C0.593,-0.415 0.568,-0.394 0.537,-0.38C0.581,-0.368 0.614,-0.346 0.638,-0.315C0.661,-0.285 0.673,-0.249 0.673,-0.208C0.673,-0.175 0.665,-0.143 0.65,-0.113C0.635,-0.082 0.614,-0.057 0.588,-0.039C0.562,-0.02 0.53,-0.009 0.491,-0.005C0.467,-0.002 0.409,-0.001 0.317,-0L0.073,-0L0.073,-0.716ZM0.218,-0.597L0.218,-0.431L0.313,-0.431C0.369,-0.431 0.404,-0.432 0.417,-0.434C0.442,-0.437 0.462,-0.445 0.476,-0.459C0.49,-0.473 0.497,-0.492 0.497,-0.515C0.497,-0.537 0.491,-0.555 0.479,-0.569C0.467,-0.583 0.448,-0.591 0.424,-0.594C0.41,-0.596 0.369,-0.597 0.301,-0.597L0.218,-0.597ZM0.218,-0.312L0.218,-0.121L0.352,-0.121C0.404,-0.121 0.437,-0.122 0.451,-0.125C0.472,-0.129 0.49,-0.138 0.503,-0.154C0.517,-0.169 0.523,-0.189 0.523,-0.214C0.523,-0.236 0.518,-0.254 0.508,-0.269C0.497,-0.284 0.482,-0.295 0.463,-0.302C0.443,-0.309 0.4,-0.312 0.334,-0.312L0.218,-0.312Z" style="fill:rgb(177,180,197);fill-rule:nonzero;"/>
            </g>
            <g transform="matrix(13,0,0,13,9.38818,0)">
                <path d="M0.073,-0L0.073,-0.716L0.604,-0.716L0.604,-0.595L0.217,-0.595L0.217,-0.436L0.577,-0.436L0.577,-0.315L0.217,-0.315L0.217,-0.121L0.617,-0.121L0.617,-0L0.073,-0Z" style="fill:rgb(177,180,197);fill-rule:nonzero;"/>
            </g>
            <g transform="matrix(13,0,0,13,18.0591,0)">
                <path d="M0.718,-0L0.561,-0L0.499,-0.163L0.212,-0.163L0.153,-0L0,-0L0.279,-0.716L0.432,-0.716L0.718,-0ZM0.452,-0.283L0.354,-0.549L0.257,-0.283L0.452,-0.283Z" style="fill:rgb(177,180,197);fill-rule:nonzero;"/>
            </g>
            <g transform="matrix(13,0,0,13,26.4824,0)">
                <path d="M0.234,-0L0.234,-0.595L0.021,-0.595L0.021,-0.716L0.59,-0.716L0.59,-0.595L0.378,-0.595L0.378,-0L0.234,-0Z" style="fill:rgb(177,180,197);fill-rule:nonzero;"/>
            </g>
            <g transform="matrix(13,0,0,13,34.4233,0)">
                <path d="M0.036,-0.233L0.177,-0.247C0.185,-0.199 0.202,-0.165 0.228,-0.143C0.254,-0.12 0.289,-0.109 0.333,-0.109C0.38,-0.109 0.415,-0.119 0.438,-0.139C0.462,-0.159 0.474,-0.182 0.474,-0.208C0.474,-0.225 0.469,-0.239 0.459,-0.251C0.449,-0.263 0.431,-0.273 0.407,-0.282C0.39,-0.288 0.351,-0.299 0.291,-0.313C0.214,-0.333 0.159,-0.356 0.128,-0.384C0.084,-0.424 0.062,-0.472 0.062,-0.528C0.062,-0.565 0.072,-0.599 0.093,-0.631C0.114,-0.662 0.143,-0.687 0.182,-0.703C0.221,-0.72 0.268,-0.728 0.323,-0.728C0.413,-0.728 0.481,-0.708 0.526,-0.669C0.572,-0.63 0.595,-0.577 0.598,-0.511L0.453,-0.505C0.447,-0.542 0.434,-0.568 0.413,-0.584C0.393,-0.6 0.362,-0.608 0.322,-0.608C0.28,-0.608 0.247,-0.6 0.223,-0.583C0.208,-0.571 0.2,-0.557 0.2,-0.538C0.2,-0.521 0.207,-0.507 0.222,-0.495C0.24,-0.479 0.284,-0.463 0.354,-0.447C0.425,-0.43 0.477,-0.413 0.51,-0.395C0.544,-0.378 0.571,-0.353 0.59,-0.323C0.609,-0.292 0.618,-0.254 0.618,-0.208C0.618,-0.167 0.607,-0.129 0.584,-0.093C0.561,-0.057 0.529,-0.031 0.487,-0.013C0.446,0.004 0.394,0.013 0.332,0.013C0.241,0.013 0.172,-0.008 0.123,-0.05C0.075,-0.092 0.046,-0.153 0.036,-0.233Z" style="fill:rgb(177,180,197);fill-rule:nonzero;"/>
            </g>
        </g>
        <g transform="matrix(-1,0,0,1,177,39)">
            <path d="M50,12C50,10.896 49.104,10 48,10L2,10C0.896,10 0,10.896 0,12C0,13.104 0.896,14 2,14L48,14C49.104,14 50,13.104 50,12Z" style="fill:rgb(177,180,197);"/>
            <path d="M41.963,2.015L50.553,10.743C51.269,11.47 51.263,12.639 50.54,13.359C50.197,13.701 49.731,13.893 49.246,13.893C48.755,13.893 48.284,13.696 47.94,13.346L39.35,4.618C38.639,3.896 38.645,2.717 39.363,2.002C39.706,1.66 40.172,1.468 40.657,1.468C41.148,1.468 41.619,1.665 41.963,2.015Z" style="fill:rgb(177,180,197);"/>
            <path d="M39.35,19.382L47.94,10.654C48.284,10.304 48.755,10.107 49.246,10.107C49.731,10.107 50.197,10.299 50.54,10.641C51.263,11.361 51.269,12.53 50.553,13.257L41.963,21.985C41.619,22.335 41.148,22.532 40.657,22.532C40.172,22.532 39.706,22.34 39.363,21.998C38.645,21.283 38.639,20.104 39.35,19.382Z" style="fill:rgb(177,180,197);"/>
        </g>
        <g transform="matrix(0.573576,0.819152,0.819152,-0.573576,72.2572,123.585)">
            <path d="M50,12C50,10.896 49.104,10 48,10L2,10C0.896,10 0,10.896 0,12C0,13.104 0.896,14 2,14L48,14C49.104,14 50,13.104 50,12Z" style="fill:rgb(177,180,197);"/>
            <path d="M41.963,2.015L50.553,10.743C51.269,11.47 51.263,12.639 50.54,13.359C50.197,13.701 49.731,13.893 49.246,13.893C48.755,13.893 48.284,13.696 47.94,13.346L39.35,4.618C38.639,3.896 38.645,2.717 39.363,2.002C39.706,1.66 40.172,1.468 40.657,1.468C41.148,1.468 41.619,1.665 41.963,2.015Z" style="fill:rgb(177,180,197);"/>
            <path d="M39.35,19.382L47.94,10.654C48.284,10.304 48.755,10.107 49.246,10.107C49.731,10.107 50.197,10.299 50.54,10.641C51.263,11.361 51.269,12.53 50.553,13.257L41.963,21.985C41.619,22.335 41.148,22.532 40.657,22.532C40.172,22.532 39.706,22.34 39.363,21.998C38.645,21.283 38.639,20.104 39.35,19.382Z" style="fill:rgb(177,180,197);"/>
        </g>
        <g transform="matrix(0.573576,-0.819152,0.819152,0.573576,187.257,152.415)">
            <path d="M50,12C50,10.896 49.104,10 48,10L2,10C0.896,10 0,10.896 0,12C0,13.104 0.896,14 2,14L48,14C49.104,14 50,13.104 50,12Z" style="fill:rgb(177,180,197);"/>
            <path d="M41.963,2.015L50.553,10.743C51.269,11.47 51.263,12.639 50.54,13.359C50.197,13.701 49.731,13.893 49.246,13.893C48.755,13.893 48.284,13.696 47.94,13.346L39.35,4.618C38.639,3.896 38.645,2.717 39.363,2.002C39.706,1.66 40.172,1.468 40.657,1.468C41.148,1.468 41.619,1.665 41.963,2.015Z" style="fill:rgb(177,180,197);"/>
            <path d="M39.35,19.382L47.94,10.654C48.284,10.304 48.755,10.107 49.246,10.107C49.731,10.107 50.197,10.299 50.54,10.641C51.263,11.361 51.269,12.53 50.553,13.257L41.963,21.985C41.619,22.335 41.148,22.532 40.657,22.532C40.172,22.532 39.706,22.34 39.363,21.998C38.645,21.283 38.639,20.104 39.35,19.382Z" style="fill:rgb(177,180,197);"/>
        </g>
    </g>
    <defs>
        <linearGradient id="_Linear1" x1="0" y1="0" x2="1" y2="0" gradientUnits="userSpaceOnUse" gradientTransform="matrix(6.41531e-15,104.77,-104.77,6.41531e-15,53.189,0)"><stop offset="0" style="stop-color:white;stop-opacity:0.09"/><stop offset="1" style="stop-color:white;stop-opacity:0"/></linearGradient>
        <linearGradient id="_Linear2" x1="0" y1="0" x2="1" y2="0" gradientUnits="userSpaceOnUse" gradientTransform="matrix(6.41531e-15,104.77,-104.77,6.41531e-15,53.686,0)"><stop offset="0" style="stop-color:white;stop-opacity:0.09"/><stop offset="1" style="stop-color:white;stop-opacity:0"/></linearGradient>
        <linearGradient id="_Linear3" x1="0" y1="0" x2="1" y2="0" gradientUnits="userSpaceOnUse" gradientTransform="matrix(6.41531e-15,104.77,-104.77,6.41531e-15,53.686,0)"><stop offset="0" style="stop-color:white;stop-opacity:0.09"/><stop offset="1" style="stop-color:white;stop-opacity:0"/></linearGradient>
    </defs>
</svg>
